<svg width="24" height="24" viewBox="0 0 24 24" fill="none" xmlns="http://www.w3.org/2000/svg">
  <path
    d="M3 14.0753C3 8.93003 7.17104 4.75902 12.3163 4.75902H14.25V3.52838C14.25 3.0718 14.7908 2.83098 15.1301 3.13642L18.6457 6.30048C18.8785 6.50998 18.8785 6.87494 18.6457 7.08443L15.1301 10.2485C14.7908 10.5539 14.25 10.3131 14.25 9.85654V8.62621H12.4515C8.75434 8.62621 5.42269 10.8574 4.01496 14.2761C3.79502 14.8102 3 14.6529 3 14.0753ZM21 9.92474C21 15.07 16.829 19.241 11.6837 19.241H9.75V20.4716C9.75 20.9282 9.20923 21.169 8.8699 20.8636L5.35427 17.6995C5.1215 17.49 5.1215 17.1251 5.35427 16.9156L8.8699 13.7515C9.20926 13.4461 9.75 13.6869 9.75 14.1435V15.3738H11.5485C15.2457 15.3738 18.5773 13.1426 19.985 9.72393C20.205 9.18984 21 9.34709 21 9.92474Z"
    fill="currentColor" />
</svg>